<svg xmlns="http://www.w3.org/2000/svg" viewBox="0 0 381.35 121.58"><defs><style>.cls-1{fill:#020202;}</style></defs><g id="Capa_2" data-name="Capa 2"><g id="Capa_1-2" data-name="Capa 1"><path class="cls-1" d="M67.34,2.59a5.77,5.77,0,0,1-.72,0c-.71-.07-1.07.21-1.26.93-2.66,10-5.36,20.07-8,30.12a3.06,3.06,0,0,0,.34,2.19Q72.6,59.75,87.58,83.63c.22.36.42.73.68,1.19H38.61L58,2.68c-.55,0-.94-.09-1.33-.09-9.51,0-19,0-28.54,0a1.29,1.29,0,0,0-1.52,1.21Q20.71,28.94,14.71,54.07C12.19,64.61,9.49,75.11,7,85.66c-1.91,8-3.64,16.06-5.48,24.08-.44,1.92-1,3.81-1.5,5.71v.72c.36,0,.71-.07,1.07-.07q57,0,113.93.07c1,0,1.33-.4,1.54-1.3q3.45-14.2,7-28.4a3.25,3.25,0,0,0-.39-2.76q-14.65-24-29.24-48.06c-.22-.35-.42-.72-.73-1.26.69,0,1.15-.08,1.62-.09l37.29-.08a15.4,15.4,0,0,1,2.15,0c1.14.16,1.48-.38,1.71-1.39,1.8-7.88,3.65-15.74,5.47-23.61.5-2.15,1-4.31,1.51-6.65H67.34Z"/><path class="cls-1" d="M298.76,55.32,272.71,99.08c-4.11-14.75-8.12-29.19-12.14-43.62l-.26,0c-7.39,20.85-14.79,41.69-22.24,62.7,3.13,0,6,0,8.87,0a1.53,1.53,0,0,0,1.78-1.25c3.29-10,6.65-20,10-29.93.12-.36.26-.72.49-1.36l10.12,35.92c7.17-12,14.16-23.64,21.16-35.32l.31.1q.3,15.87.59,31.74h10Q300.19,86.65,299,55.36Z"/><path class="cls-1" d="M321.71,70h22.45c.49-3.07,1-6,1.45-9.06H313.33c-3,19.09-6,38.09-9.07,57.27h29.87c2.36,0,2.38,0,2.76-2.3s.71-4.52,1.07-6.9H315.52c.93-5.89,1.85-11.66,2.78-17.54h21.81c.49-3.1,1-6.11,1.46-9.26H319.76C320.42,78.05,321.06,74.06,321.71,70Z"/><path class="cls-1" d="M188.13,58.54c5,0,9.91,0,14.86,0,.42,0,1.17-.28,1.21-.54.53-2.81.94-5.65,1.41-8.63H183.15c.94-5.92,1.86-11.69,2.79-17.57h21.81c.49-3.1,1-6.08,1.46-9.21H187.4c.6-3.8,1.23-7.45,1.74-11.11.14-.94.49-1.15,1.36-1.14,6.6,0,13.19,0,19.78,0h1.52c.49-3.06,1-6,1.44-9.06-.29,0-.48-.08-.68-.08q-15.34,0-30.69,0c-.71,0-.93.24-1,.94q-4,25.51-8.09,51c-.28,1.75-.53,3.51-.82,5.42h16.21Z"/><path class="cls-1" d="M175,86.18a85.21,85.21,0,0,0-8-4,37.44,37.44,0,0,1-4.75-2.47c-2.34-1.64-2.71-4-1.19-6.41a9.3,9.3,0,0,1,6.45-4.14c3.93-.76,6.59.61,8.24,4.24.19.42.4.85.61,1.31l8.4-4.61A14.06,14.06,0,0,0,180,62.87c-4.27-3.34-9.13-3.84-14.21-2.72-6.8,1.51-12,5.13-14.53,11.86-2.45,6.57-.53,12.18,5.37,16,1.54,1,3.22,1.74,4.85,2.59,2.44,1.26,4.94,2.41,7.3,3.8a5.42,5.42,0,0,1,2.7,4.32c.55,6.18-5.42,12-11.6,11.26a6.88,6.88,0,0,1-6.24-8c.11-.82.23-1.63.37-2.64l-10.34,2.1c0,.94,0,1.77,0,2.61a15.34,15.34,0,0,0,13.93,15.22A21.81,21.81,0,0,0,181,102C182.28,95.47,180.76,89.9,175,86.18Z"/><path class="cls-1" d="M319.16,32.51a4.09,4.09,0,0,1,.29,2.07c-.79,5.28-1.65,10.55-2.49,15.83-.42,2.66-.84,5.32-1.27,8.06h9.73c.1-.47.21-.89.27-1.31,1.15-7.29,2.28-14.58,3.47-21.86a5.67,5.67,0,0,1,1-2.35Q341,18.16,351.88,3.44c.51-.69,1-1.39,1.63-2.26-3.64,0-7,0-10.41,0a1.92,1.92,0,0,0-1.76.94q-7,9.57-14,19.12c-.37.51-.76,1-1.22,1.59-.25-.58-.45-1-.63-1.44-2.65-6.37-5.29-12.74-8-19.09-.17-.42-.59-1-.91-1-3.46-.08-6.93-.05-10.53-.05.23.58.39,1,.57,1.45Q312.91,17.57,319.16,32.51Z"/><path class="cls-1" d="M167.22,58.53c1,0,2.38.3,3-.23s.53-1.89.7-2.91c.33-2,.61-4,.94-6.1H155.34c2.55-16.07,5.08-32,7.63-48.11-3.19,0-6.15,0-9.1,0-.28,0-.75.51-.81.83-.83,5-1.62,10-2.41,15q-2.73,17.13-5.44,34.25c-.37,2.35-.73,4.71-1.12,7.24h23.13Z"/><path class="cls-1" d="M278.23,59.67c18.44.7,32.77-14.22,31.23-32.45A30.28,30.28,0,0,0,286.05.73c-1.32-.27-2.66-.49-4-.73h-5a6.14,6.14,0,0,1-.92.22,30.05,30.05,0,0,0-26.37,33.46A29.64,29.64,0,0,0,278.23,59.67Zm1.33-50.34a20.06,20.06,0,0,1,20.26,20.56,20.28,20.28,0,1,1-40.55,0A20.08,20.08,0,0,1,279.56,9.33Z"/><path class="cls-1" d="M213.94,59.65a30.12,30.12,0,0,0-29.59,30c.09,17.48,14.23,30.09,30.76,29.71a29.64,29.64,0,0,0,29.28-30.58A30.08,30.08,0,0,0,213.94,59.65Zm.21,50.35c-11.16,0-20.07-9.32-20-20.88A20,20,0,0,1,214.54,69c11.4.06,20.13,9,20.09,20.6A20.35,20.35,0,0,1,214.15,110Z"/><path class="cls-1" d="M209.57,58.43a10,10,0,0,0,1.06.1c2.56,0,5.11,0,7.67,0,.79,0,1.08-.22,1.21-1,1.07-7,2.2-14,3.32-21a12.32,12.32,0,0,1,.43-1.38c.46.73.75,1.13,1,1.56q5.63,10.43,11.21,20.86a1.68,1.68,0,0,0,1.76,1c3-.05,6.08,0,9.12,0,.37,0,.75,0,1.32-.08L234.12,34.59a3.5,3.5,0,0,1,.5-.26c8.5-2.75,13.21-8.63,14.19-17.42.61-5.56-2-12.43-9.46-14.56a18.46,18.46,0,0,0-4.45-.87c-5.15-.19-10.3-.21-15.45-.31-.67,0-.87.24-1,.88-.76,5-1.57,9.92-2.35,14.88q-2.73,17.13-5.44,34.26C210.31,53.58,210,56,209.57,58.43ZM226,16.3c.27-1.78.53-3.55.88-5.31.06-.31.5-.8.72-.78a46.33,46.33,0,0,1,7,.83c4,1,5.49,3.59,4.62,7.66-1,4.51-3.72,6.94-9,7.82a37.19,37.19,0,0,1-3.81.35c-.63.05-1.26,0-2.09,0C224.94,23.22,225.48,19.76,226,16.3Z"/><path class="cls-1" d="M367.22,93.92a19.17,19.17,0,0,0,13.29-13.31c2.53-8-.46-18-11.92-19.28-5.58-.6-11.25-.38-16.88-.47-.26,0-.7.47-.75.77-.45,2.47-.83,5-1.22,7.44l-6.93,43.71c-.27,1.75-.53,3.5-.82,5.4,3.16,0,6.15,0,9.14-.05.26,0,.69-.55.75-.9,1-5.9,1.9-11.81,2.85-17.71.23-1.47.49-2.94.73-4.41l.36-.07a13.78,13.78,0,0,1,.82,1.18q5.64,10.47,11.26,21a1.62,1.62,0,0,0,1.66,1c3.08,0,6.16,0,9.23,0,.37,0,.74-.06,1.29-.11L366.57,94.26l.31-.22C367,94,367.11,94,367.22,93.92Zm-2.11-8.33a27.33,27.33,0,0,1-8.29,1c.29-2,.56-3.84.85-5.71.53-3.3,1.11-6.59,1.57-9.9.13-.88.45-1.18,1.29-1.07a53.13,53.13,0,0,1,7.17,1c3.34.93,4.53,3.11,4.11,6.55A9,9,0,0,1,365.11,85.59Z"/><path class="cls-1" d="M366.49,17.47a8.25,8.25,0,0,0,8.42-8.28,8.38,8.38,0,1,0-8.42,8.28Zm0-15.29a6.94,6.94,0,0,1,7,7,6.86,6.86,0,0,1-6.93,6.89,6.94,6.94,0,0,1-7-7A7,7,0,0,1,366.52,2.18Z"/><path class="cls-1" d="M364.71,9.69a1.68,1.68,0,0,1,2.37,1.09c.3.74.82,1.38,1.13,2.1a1.41,1.41,0,0,0,2.08.85l-2.18-4,.4-.16a2.45,2.45,0,0,0,2-2.82,2.34,2.34,0,0,0-2.56-2.15c-1.47-.07-2.95,0-4.5,0V13.9l1.27-.11Zm0-3.72A26.26,26.26,0,0,1,368,6c.44.07,1.13.49,1.13,1h0a.59.59,0,0,1-.05.23,1.35,1.35,0,0,1-1,.8,23.4,23.4,0,0,1-3.26.05Z"/></g></g></svg>